<?xml version="1.0" encoding="utf-8" standalone="no"?>
<!DOCTYPE svg PUBLIC "-//W3C//DTD SVG 1.1//EN"
  "http://www.w3.org/Graphics/SVG/1.1/DTD/svg11.dtd">
<svg xmlns:xlink="http://www.w3.org/1999/xlink" width="409.165312pt" height="297.190125pt" viewBox="0 0 409.165312 297.190125" xmlns="http://www.w3.org/2000/svg" version="1.1">
 <metadata>
  <rdf:RDF xmlns:dc="http://purl.org/dc/elements/1.1/" xmlns:cc="http://creativecommons.org/ns#" xmlns:rdf="http://www.w3.org/1999/02/22-rdf-syntax-ns#">
   <cc:Work>
    <dc:type rdf:resource="http://purl.org/dc/dcmitype/StillImage"/>
    <dc:date>2023-04-25T15:11:35.197308</dc:date>
    <dc:format>image/svg+xml</dc:format>
    <dc:creator>
     <cc:Agent>
      <dc:title>Matplotlib v3.6.2, https://matplotlib.org/</dc:title>
     </cc:Agent>
    </dc:creator>
   </cc:Work>
  </rdf:RDF>
 </metadata>
 <defs>
  <style type="text/css">*{stroke-linejoin: round; stroke-linecap: butt}</style>
 </defs>
 <g id="figure_1">
  <g id="patch_1">
   <path d="M 0 297.190125 
L 409.165312 297.190125 
L 409.165312 0 
L 0 0 
z
" style="fill: #ffffff"/>
  </g>
  <g id="axes_1">
   <g id="patch_2">
    <path d="M 44.845313 273.312 
L 401.965312 273.312 
L 401.965312 7.2 
L 44.845313 7.2 
z
" style="fill: #ffffff"/>
   </g>
   <g id="matplotlib.axis_1">
    <g id="xtick_1">
     <g id="line2d_1">
      <defs>
       <path id="m8be8f73cb8" d="M 0 0 
L 0 3.5 
" style="stroke: #000000; stroke-width: 0.8"/>
      </defs>
      <g>
       <use xlink:href="#m8be8f73cb8" x="61.07804" y="273.312" style="stroke: #000000; stroke-width: 0.8"/>
      </g>
     </g>
     <g id="text_1">
      <!-- 0 -->
      <g transform="translate(57.89679 287.910437) scale(0.1 -0.1)">
       <defs>
        <path id="DejaVuSans-30" d="M 2034 4250 
Q 1547 4250 1301 3770 
Q 1056 3291 1056 2328 
Q 1056 1369 1301 889 
Q 1547 409 2034 409 
Q 2525 409 2770 889 
Q 3016 1369 3016 2328 
Q 3016 3291 2770 3770 
Q 2525 4250 2034 4250 
z
M 2034 4750 
Q 2819 4750 3233 4129 
Q 3647 3509 3647 2328 
Q 3647 1150 3233 529 
Q 2819 -91 2034 -91 
Q 1250 -91 836 529 
Q 422 1150 422 2328 
Q 422 3509 836 4129 
Q 1250 4750 2034 4750 
z
" transform="scale(0.015625)"/>
       </defs>
       <use xlink:href="#DejaVuSans-30"/>
      </g>
     </g>
    </g>
    <g id="xtick_2">
     <g id="line2d_2">
      <g>
       <use xlink:href="#m8be8f73cb8" x="126.073945" y="273.312" style="stroke: #000000; stroke-width: 0.8"/>
      </g>
     </g>
     <g id="text_2">
      <!-- 200 -->
      <g transform="translate(116.530195 287.910437) scale(0.1 -0.1)">
       <defs>
        <path id="DejaVuSans-32" d="M 1228 531 
L 3431 531 
L 3431 0 
L 469 0 
L 469 531 
Q 828 903 1448 1529 
Q 2069 2156 2228 2338 
Q 2531 2678 2651 2914 
Q 2772 3150 2772 3378 
Q 2772 3750 2511 3984 
Q 2250 4219 1831 4219 
Q 1534 4219 1204 4116 
Q 875 4013 500 3803 
L 500 4441 
Q 881 4594 1212 4672 
Q 1544 4750 1819 4750 
Q 2544 4750 2975 4387 
Q 3406 4025 3406 3419 
Q 3406 3131 3298 2873 
Q 3191 2616 2906 2266 
Q 2828 2175 2409 1742 
Q 1991 1309 1228 531 
z
" transform="scale(0.015625)"/>
       </defs>
       <use xlink:href="#DejaVuSans-32"/>
       <use xlink:href="#DejaVuSans-30" x="63.623047"/>
       <use xlink:href="#DejaVuSans-30" x="127.246094"/>
      </g>
     </g>
    </g>
    <g id="xtick_3">
     <g id="line2d_3">
      <g>
       <use xlink:href="#m8be8f73cb8" x="191.06985" y="273.312" style="stroke: #000000; stroke-width: 0.8"/>
      </g>
     </g>
     <g id="text_3">
      <!-- 400 -->
      <g transform="translate(181.5261 287.910437) scale(0.1 -0.1)">
       <defs>
        <path id="DejaVuSans-34" d="M 2419 4116 
L 825 1625 
L 2419 1625 
L 2419 4116 
z
M 2253 4666 
L 3047 4666 
L 3047 1625 
L 3713 1625 
L 3713 1100 
L 3047 1100 
L 3047 0 
L 2419 0 
L 2419 1100 
L 313 1100 
L 313 1709 
L 2253 4666 
z
" transform="scale(0.015625)"/>
       </defs>
       <use xlink:href="#DejaVuSans-34"/>
       <use xlink:href="#DejaVuSans-30" x="63.623047"/>
       <use xlink:href="#DejaVuSans-30" x="127.246094"/>
      </g>
     </g>
    </g>
    <g id="xtick_4">
     <g id="line2d_4">
      <g>
       <use xlink:href="#m8be8f73cb8" x="256.065755" y="273.312" style="stroke: #000000; stroke-width: 0.8"/>
      </g>
     </g>
     <g id="text_4">
      <!-- 600 -->
      <g transform="translate(246.522005 287.910437) scale(0.1 -0.1)">
       <defs>
        <path id="DejaVuSans-36" d="M 2113 2584 
Q 1688 2584 1439 2293 
Q 1191 2003 1191 1497 
Q 1191 994 1439 701 
Q 1688 409 2113 409 
Q 2538 409 2786 701 
Q 3034 994 3034 1497 
Q 3034 2003 2786 2293 
Q 2538 2584 2113 2584 
z
M 3366 4563 
L 3366 3988 
Q 3128 4100 2886 4159 
Q 2644 4219 2406 4219 
Q 1781 4219 1451 3797 
Q 1122 3375 1075 2522 
Q 1259 2794 1537 2939 
Q 1816 3084 2150 3084 
Q 2853 3084 3261 2657 
Q 3669 2231 3669 1497 
Q 3669 778 3244 343 
Q 2819 -91 2113 -91 
Q 1303 -91 875 529 
Q 447 1150 447 2328 
Q 447 3434 972 4092 
Q 1497 4750 2381 4750 
Q 2619 4750 2861 4703 
Q 3103 4656 3366 4563 
z
" transform="scale(0.015625)"/>
       </defs>
       <use xlink:href="#DejaVuSans-36"/>
       <use xlink:href="#DejaVuSans-30" x="63.623047"/>
       <use xlink:href="#DejaVuSans-30" x="127.246094"/>
      </g>
     </g>
    </g>
    <g id="xtick_5">
     <g id="line2d_5">
      <g>
       <use xlink:href="#m8be8f73cb8" x="321.06166" y="273.312" style="stroke: #000000; stroke-width: 0.8"/>
      </g>
     </g>
     <g id="text_5">
      <!-- 800 -->
      <g transform="translate(311.51791 287.910437) scale(0.1 -0.1)">
       <defs>
        <path id="DejaVuSans-38" d="M 2034 2216 
Q 1584 2216 1326 1975 
Q 1069 1734 1069 1313 
Q 1069 891 1326 650 
Q 1584 409 2034 409 
Q 2484 409 2743 651 
Q 3003 894 3003 1313 
Q 3003 1734 2745 1975 
Q 2488 2216 2034 2216 
z
M 1403 2484 
Q 997 2584 770 2862 
Q 544 3141 544 3541 
Q 544 4100 942 4425 
Q 1341 4750 2034 4750 
Q 2731 4750 3128 4425 
Q 3525 4100 3525 3541 
Q 3525 3141 3298 2862 
Q 3072 2584 2669 2484 
Q 3125 2378 3379 2068 
Q 3634 1759 3634 1313 
Q 3634 634 3220 271 
Q 2806 -91 2034 -91 
Q 1263 -91 848 271 
Q 434 634 434 1313 
Q 434 1759 690 2068 
Q 947 2378 1403 2484 
z
M 1172 3481 
Q 1172 3119 1398 2916 
Q 1625 2713 2034 2713 
Q 2441 2713 2670 2916 
Q 2900 3119 2900 3481 
Q 2900 3844 2670 4047 
Q 2441 4250 2034 4250 
Q 1625 4250 1398 4047 
Q 1172 3844 1172 3481 
z
" transform="scale(0.015625)"/>
       </defs>
       <use xlink:href="#DejaVuSans-38"/>
       <use xlink:href="#DejaVuSans-30" x="63.623047"/>
       <use xlink:href="#DejaVuSans-30" x="127.246094"/>
      </g>
     </g>
    </g>
    <g id="xtick_6">
     <g id="line2d_6">
      <g>
       <use xlink:href="#m8be8f73cb8" x="386.057565" y="273.312" style="stroke: #000000; stroke-width: 0.8"/>
      </g>
     </g>
     <g id="text_6">
      <!-- 1000 -->
      <g transform="translate(373.332565 287.910437) scale(0.1 -0.1)">
       <defs>
        <path id="DejaVuSans-31" d="M 794 531 
L 1825 531 
L 1825 4091 
L 703 3866 
L 703 4441 
L 1819 4666 
L 2450 4666 
L 2450 531 
L 3481 531 
L 3481 0 
L 794 0 
L 794 531 
z
" transform="scale(0.015625)"/>
       </defs>
       <use xlink:href="#DejaVuSans-31"/>
       <use xlink:href="#DejaVuSans-30" x="63.623047"/>
       <use xlink:href="#DejaVuSans-30" x="127.246094"/>
       <use xlink:href="#DejaVuSans-30" x="190.869141"/>
      </g>
     </g>
    </g>
   </g>
   <g id="matplotlib.axis_2">
    <g id="ytick_1">
     <g id="line2d_7">
      <defs>
       <path id="ma238da00e5" d="M 0 0 
L -3.5 0 
" style="stroke: #000000; stroke-width: 0.8"/>
      </defs>
      <g>
       <use xlink:href="#ma238da00e5" x="44.845313" y="261.216" style="stroke: #000000; stroke-width: 0.8"/>
      </g>
     </g>
     <g id="text_7">
      <!-- −1.00 -->
      <g transform="translate(7.2 265.015219) scale(0.1 -0.1)">
       <defs>
        <path id="DejaVuSans-2212" d="M 678 2272 
L 4684 2272 
L 4684 1741 
L 678 1741 
L 678 2272 
z
" transform="scale(0.015625)"/>
        <path id="DejaVuSans-2e" d="M 684 794 
L 1344 794 
L 1344 0 
L 684 0 
L 684 794 
z
" transform="scale(0.015625)"/>
       </defs>
       <use xlink:href="#DejaVuSans-2212"/>
       <use xlink:href="#DejaVuSans-31" x="83.789062"/>
       <use xlink:href="#DejaVuSans-2e" x="147.412109"/>
       <use xlink:href="#DejaVuSans-30" x="179.199219"/>
       <use xlink:href="#DejaVuSans-30" x="242.822266"/>
      </g>
     </g>
    </g>
    <g id="ytick_2">
     <g id="line2d_8">
      <g>
       <use xlink:href="#ma238da00e5" x="44.845313" y="230.976" style="stroke: #000000; stroke-width: 0.8"/>
      </g>
     </g>
     <g id="text_8">
      <!-- −0.75 -->
      <g transform="translate(7.2 234.775219) scale(0.1 -0.1)">
       <defs>
        <path id="DejaVuSans-37" d="M 525 4666 
L 3525 4666 
L 3525 4397 
L 1831 0 
L 1172 0 
L 2766 4134 
L 525 4134 
L 525 4666 
z
" transform="scale(0.015625)"/>
        <path id="DejaVuSans-35" d="M 691 4666 
L 3169 4666 
L 3169 4134 
L 1269 4134 
L 1269 2991 
Q 1406 3038 1543 3061 
Q 1681 3084 1819 3084 
Q 2600 3084 3056 2656 
Q 3513 2228 3513 1497 
Q 3513 744 3044 326 
Q 2575 -91 1722 -91 
Q 1428 -91 1123 -41 
Q 819 9 494 109 
L 494 744 
Q 775 591 1075 516 
Q 1375 441 1709 441 
Q 2250 441 2565 725 
Q 2881 1009 2881 1497 
Q 2881 1984 2565 2268 
Q 2250 2553 1709 2553 
Q 1456 2553 1204 2497 
Q 953 2441 691 2322 
L 691 4666 
z
" transform="scale(0.015625)"/>
       </defs>
       <use xlink:href="#DejaVuSans-2212"/>
       <use xlink:href="#DejaVuSans-30" x="83.789062"/>
       <use xlink:href="#DejaVuSans-2e" x="147.412109"/>
       <use xlink:href="#DejaVuSans-37" x="179.199219"/>
       <use xlink:href="#DejaVuSans-35" x="242.822266"/>
      </g>
     </g>
    </g>
    <g id="ytick_3">
     <g id="line2d_9">
      <g>
       <use xlink:href="#ma238da00e5" x="44.845313" y="200.736" style="stroke: #000000; stroke-width: 0.8"/>
      </g>
     </g>
     <g id="text_9">
      <!-- −0.50 -->
      <g transform="translate(7.2 204.535219) scale(0.1 -0.1)">
       <use xlink:href="#DejaVuSans-2212"/>
       <use xlink:href="#DejaVuSans-30" x="83.789062"/>
       <use xlink:href="#DejaVuSans-2e" x="147.412109"/>
       <use xlink:href="#DejaVuSans-35" x="179.199219"/>
       <use xlink:href="#DejaVuSans-30" x="242.822266"/>
      </g>
     </g>
    </g>
    <g id="ytick_4">
     <g id="line2d_10">
      <g>
       <use xlink:href="#ma238da00e5" x="44.845313" y="170.496" style="stroke: #000000; stroke-width: 0.8"/>
      </g>
     </g>
     <g id="text_10">
      <!-- −0.25 -->
      <g transform="translate(7.2 174.295219) scale(0.1 -0.1)">
       <use xlink:href="#DejaVuSans-2212"/>
       <use xlink:href="#DejaVuSans-30" x="83.789062"/>
       <use xlink:href="#DejaVuSans-2e" x="147.412109"/>
       <use xlink:href="#DejaVuSans-32" x="179.199219"/>
       <use xlink:href="#DejaVuSans-35" x="242.822266"/>
      </g>
     </g>
    </g>
    <g id="ytick_5">
     <g id="line2d_11">
      <g>
       <use xlink:href="#ma238da00e5" x="44.845313" y="140.256" style="stroke: #000000; stroke-width: 0.8"/>
      </g>
     </g>
     <g id="text_11">
      <!-- 0.00 -->
      <g transform="translate(15.579688 144.055219) scale(0.1 -0.1)">
       <use xlink:href="#DejaVuSans-30"/>
       <use xlink:href="#DejaVuSans-2e" x="63.623047"/>
       <use xlink:href="#DejaVuSans-30" x="95.410156"/>
       <use xlink:href="#DejaVuSans-30" x="159.033203"/>
      </g>
     </g>
    </g>
    <g id="ytick_6">
     <g id="line2d_12">
      <g>
       <use xlink:href="#ma238da00e5" x="44.845313" y="110.016" style="stroke: #000000; stroke-width: 0.8"/>
      </g>
     </g>
     <g id="text_12">
      <!-- 0.25 -->
      <g transform="translate(15.579688 113.815219) scale(0.1 -0.1)">
       <use xlink:href="#DejaVuSans-30"/>
       <use xlink:href="#DejaVuSans-2e" x="63.623047"/>
       <use xlink:href="#DejaVuSans-32" x="95.410156"/>
       <use xlink:href="#DejaVuSans-35" x="159.033203"/>
      </g>
     </g>
    </g>
    <g id="ytick_7">
     <g id="line2d_13">
      <g>
       <use xlink:href="#ma238da00e5" x="44.845313" y="79.776" style="stroke: #000000; stroke-width: 0.8"/>
      </g>
     </g>
     <g id="text_13">
      <!-- 0.50 -->
      <g transform="translate(15.579688 83.575219) scale(0.1 -0.1)">
       <use xlink:href="#DejaVuSans-30"/>
       <use xlink:href="#DejaVuSans-2e" x="63.623047"/>
       <use xlink:href="#DejaVuSans-35" x="95.410156"/>
       <use xlink:href="#DejaVuSans-30" x="159.033203"/>
      </g>
     </g>
    </g>
    <g id="ytick_8">
     <g id="line2d_14">
      <g>
       <use xlink:href="#ma238da00e5" x="44.845313" y="49.536" style="stroke: #000000; stroke-width: 0.8"/>
      </g>
     </g>
     <g id="text_14">
      <!-- 0.75 -->
      <g transform="translate(15.579688 53.335219) scale(0.1 -0.1)">
       <use xlink:href="#DejaVuSans-30"/>
       <use xlink:href="#DejaVuSans-2e" x="63.623047"/>
       <use xlink:href="#DejaVuSans-37" x="95.410156"/>
       <use xlink:href="#DejaVuSans-35" x="159.033203"/>
      </g>
     </g>
    </g>
    <g id="ytick_9">
     <g id="line2d_15">
      <g>
       <use xlink:href="#ma238da00e5" x="44.845313" y="19.296" style="stroke: #000000; stroke-width: 0.8"/>
      </g>
     </g>
     <g id="text_15">
      <!-- 1.00 -->
      <g transform="translate(15.579688 23.095219) scale(0.1 -0.1)">
       <use xlink:href="#DejaVuSans-31"/>
       <use xlink:href="#DejaVuSans-2e" x="63.623047"/>
       <use xlink:href="#DejaVuSans-30" x="95.410156"/>
       <use xlink:href="#DejaVuSans-30" x="159.033203"/>
      </g>
     </g>
    </g>
   </g>
   <g id="line2d_16">
    <path d="M 61.07804 140.256 
L 73.427262 111.649081 
L 79.926852 97.144404 
L 85.451504 85.34137 
L 90.326197 75.442366 
L 94.87591 66.720787 
L 98.775665 59.695188 
L 102.675419 53.127423 
L 106.250194 47.541007 
L 109.499989 42.845944 
L 112.749784 38.535293 
L 115.6746 34.998543 
L 118.599416 31.798305 
L 121.524231 28.944737 
L 124.124068 26.706735 
L 126.723904 24.75553 
L 129.32374 23.0962 
L 131.598597 21.886842 
L 133.873453 20.906461 
L 136.14831 20.156872 
L 138.423167 19.639647 
L 140.698023 19.355633 
L 142.97288 19.305556 
L 145.247737 19.489294 
L 147.522593 19.906727 
L 149.79745 20.556887 
L 152.072307 21.438564 
L 154.347163 22.549945 
L 156.62202 23.889093 
L 159.221856 25.695026 
L 161.821693 27.790295 
L 164.421529 30.169578 
L 167.346344 33.178458 
L 170.27116 36.529534 
L 173.195976 40.212282 
L 176.445771 44.678851 
L 179.695566 49.522573 
L 183.270341 55.263456 
L 187.170095 61.988106 
L 191.06985 69.157526 
L 195.294584 77.378936 
L 200.169276 87.382449 
L 205.368949 98.567983 
L 211.54356 112.388147 
L 219.993027 131.90249 
L 236.891963 171.0731 
L 243.391553 185.490081 
L 248.591226 196.520665 
L 253.465919 206.347818 
L 257.690652 214.393231 
L 261.590407 221.382179 
L 265.490161 227.910027 
L 269.064936 233.457252 
L 272.314731 238.114696 
L 275.564526 242.385915 
L 278.489342 245.885772 
L 281.414158 249.048029 
L 284.338973 251.862526 
L 286.93881 254.064966 
L 289.538646 255.979884 
L 292.138482 257.602562 
L 294.413339 258.779261 
L 296.688195 259.72674 
L 298.963052 260.443187 
L 301.237909 260.927268 
L 303.512765 261.177777 
L 305.787622 261.194469 
L 308.062479 260.977346 
L 310.337335 260.526649 
L 312.612192 259.843346 
L 314.887049 258.928767 
L 317.161905 257.784607 
L 319.436762 256.413162 
L 322.036598 254.57082 
L 324.636435 252.439747 
L 327.236271 250.025265 
L 330.161086 246.977919 
L 333.085902 243.589346 
L 336.010718 239.870552 
L 339.260513 235.365396 
L 342.510308 230.485023 
L 346.085083 224.706038 
L 349.984837 217.942923 
L 353.884592 210.738303 
L 358.109326 202.482662 
L 362.984018 192.444918 
L 368.50867 180.513907 
L 375.008261 165.900367 
L 384.107688 144.815019 
L 385.732585 141.016022 
L 385.732585 141.016022 
" clip-path="url(#pa10370741e)" style="fill: none; stroke: #1f77b4; stroke-width: 1.5; stroke-linecap: square"/>
   </g>
   <g id="line2d_17">
    <path d="M 61.07804 19.296 
L 63.352896 19.412968 
L 65.627753 19.763631 
L 67.90261 20.347384 
L 70.177466 21.163139 
L 72.452323 22.20908 
L 74.72718 23.483393 
L 77.327016 25.216145 
L 79.926852 27.239564 
L 82.526688 29.548449 
L 85.126525 32.136993 
L 88.05134 35.375092 
L 90.976156 38.948613 
L 94.225951 43.298456 
L 97.475747 48.030895 
L 101.050521 53.656381 
L 104.625296 59.695188 
L 108.52505 66.720787 
L 112.749784 74.802004 
L 117.299498 83.991335 
L 122.49917 95.021919 
L 128.348801 107.971534 
L 135.823331 125.09572 
L 158.571897 177.634696 
L 164.421529 190.378921 
L 169.621201 201.174238 
L 174.170914 210.11923 
L 178.395648 217.942923 
L 182.295403 224.706038 
L 185.870177 230.485023 
L 189.444952 235.833149 
L 192.694747 240.299718 
L 195.944543 244.371352 
L 198.869358 247.684931 
L 201.794174 250.655224 
L 204.39401 252.999308 
L 206.993846 255.058652 
L 209.593683 256.828055 
L 212.193519 258.30292 
L 214.468376 259.348861 
L 216.743232 260.164616 
L 219.018089 260.748369 
L 221.292946 261.099032 
L 223.567802 261.216 
L 225.842659 261.099032 
L 228.117516 260.748369 
L 230.392372 260.164616 
L 232.667229 259.348861 
L 234.942086 258.30292 
L 237.216942 257.028607 
L 239.816779 255.295855 
L 242.416615 253.272436 
L 245.016451 250.963551 
L 247.616287 248.375007 
L 250.541103 245.136908 
L 253.465919 241.563387 
L 256.715714 237.213544 
L 259.965509 232.481105 
L 263.540284 226.85574 
L 267.115059 220.816812 
L 271.014813 213.791213 
L 275.239547 205.709996 
L 279.78926 196.520665 
L 284.988932 185.490081 
L 290.838564 172.540466 
L 298.313093 155.41628 
L 321.06166 102.877304 
L 326.911291 90.133079 
L 332.110964 79.337762 
L 336.660677 70.39277 
L 340.885411 62.569077 
L 344.785165 55.805962 
L 348.35994 50.026977 
L 351.934715 44.678851 
L 355.18451 40.212282 
L 358.434305 36.140648 
L 361.359121 32.827069 
L 364.283937 29.856776 
L 366.883773 27.512692 
L 369.483609 25.453348 
L 372.083445 23.683945 
L 374.683281 22.20908 
L 376.958138 21.163139 
L 379.232995 20.347384 
L 381.507851 19.763631 
L 383.782708 19.412968 
L 385.732585 19.298419 
L 385.732585 19.298419 
" clip-path="url(#pa10370741e)" style="fill: none; stroke: #ff7f0e; stroke-width: 1.5; stroke-linecap: square"/>
   </g>
   <g id="line2d_18">
    <path d="M 61.07804 140.256 
L 68.877548 122.2909 
L 73.102282 113.137736 
L 76.352077 106.57614 
L 79.276893 101.122053 
L 81.876729 96.691651 
L 84.476566 92.701302 
L 86.751422 89.602307 
L 89.026279 86.89498 
L 90.976156 84.902164 
L 92.926033 83.223965 
L 94.87591 81.869697 
L 96.500808 80.994309 
L 98.125706 80.352858 
L 99.750603 79.947884 
L 101.375501 79.780717 
L 103.000398 79.852447 
L 104.625296 80.162346 
L 106.250194 80.709569 
L 107.875091 81.491697 
L 109.499989 82.505825 
L 111.449866 84.023148 
L 113.399743 85.859925 
L 115.34962 88.005876 
L 117.624477 90.883757 
L 119.899334 94.143508 
L 122.49917 98.303806 
L 125.099006 102.887827 
L 128.023822 108.493476 
L 131.273617 115.19454 
L 135.173371 123.747863 
L 140.698023 136.458425 
L 150.447409 158.945288 
L 154.347163 167.374264 
L 157.596959 173.93586 
L 160.521774 179.389947 
L 163.121611 183.820228 
L 165.721447 187.810698 
L 167.996303 190.909693 
L 170.27116 193.61702 
L 172.221037 195.609836 
L 174.170914 197.288035 
L 176.120792 198.642303 
L 177.745689 199.517691 
L 179.370587 200.159142 
L 180.995484 200.564116 
L 182.620382 200.731283 
L 184.24528 200.659553 
L 185.870177 200.349654 
L 187.495075 199.802431 
L 189.119973 199.020303 
L 190.74487 198.006175 
L 192.694747 196.488852 
L 194.644625 194.652075 
L 196.594502 192.506124 
L 198.869358 189.628243 
L 201.144215 186.368492 
L 203.744051 182.208194 
L 206.343887 177.624173 
L 209.268703 172.018524 
L 212.518498 165.31746 
L 216.418253 156.764137 
L 221.942905 144.053575 
L 231.69229 121.566712 
L 235.592045 113.137736 
L 238.84184 106.57614 
L 241.766656 101.122053 
L 244.366492 96.691772 
L 246.966328 92.701302 
L 249.241185 89.602307 
L 251.516041 86.89498 
L 253.465919 84.902164 
L 255.415796 83.223965 
L 257.365673 81.869697 
L 258.99057 80.994309 
L 260.615468 80.352858 
L 262.240366 79.947884 
L 263.865263 79.780717 
L 265.490161 79.852447 
L 267.115059 80.162346 
L 268.739956 80.709569 
L 270.364854 81.491697 
L 271.989751 82.505825 
L 273.939629 84.023148 
L 275.889506 85.859925 
L 277.839383 88.005876 
L 280.11424 90.883757 
L 282.389096 94.143508 
L 284.988932 98.303806 
L 287.588769 102.887827 
L 290.513584 108.493476 
L 293.76338 115.19454 
L 297.663134 123.747863 
L 303.187786 136.458425 
L 312.937172 158.945288 
L 316.836926 167.374264 
L 320.086721 173.93586 
L 323.011537 179.389947 
L 325.611373 183.820228 
L 328.211209 187.810698 
L 330.486066 190.909693 
L 332.760923 193.61702 
L 334.7108 195.609836 
L 336.660677 197.288035 
L 338.610554 198.642303 
L 340.235452 199.517691 
L 341.860349 200.159142 
L 343.485247 200.564116 
L 345.110145 200.731283 
L 346.735042 200.659553 
L 348.35994 200.349654 
L 349.984837 199.802431 
L 351.609735 199.020303 
L 353.234633 198.006175 
L 355.18451 196.488852 
L 357.134387 194.652075 
L 359.084264 192.506124 
L 361.359121 189.628243 
L 363.633978 186.368492 
L 366.233814 182.208194 
L 368.83365 177.624173 
L 371.758466 172.018524 
L 375.008261 165.31746 
L 378.908015 156.764137 
L 384.432667 144.053588 
L 385.732585 141.016007 
L 385.732585 141.016007 
" clip-path="url(#pa10370741e)" style="fill: none; stroke: #2ca02c; stroke-width: 1.5; stroke-linecap: square"/>
   </g>
   <g id="patch_3">
    <path d="M 44.845313 273.312 
L 44.845313 7.2 
" style="fill: none; stroke: #000000; stroke-width: 0.8; stroke-linejoin: miter; stroke-linecap: square"/>
   </g>
   <g id="patch_4">
    <path d="M 401.965312 273.312 
L 401.965312 7.2 
" style="fill: none; stroke: #000000; stroke-width: 0.8; stroke-linejoin: miter; stroke-linecap: square"/>
   </g>
   <g id="patch_5">
    <path d="M 44.845313 273.312 
L 401.965312 273.312 
" style="fill: none; stroke: #000000; stroke-width: 0.8; stroke-linejoin: miter; stroke-linecap: square"/>
   </g>
   <g id="patch_6">
    <path d="M 44.845313 7.2 
L 401.965312 7.2 
" style="fill: none; stroke: #000000; stroke-width: 0.8; stroke-linejoin: miter; stroke-linecap: square"/>
   </g>
  </g>
 </g>
 <defs>
  <clipPath id="pa10370741e">
   <rect x="44.845313" y="7.2" width="357.12" height="266.112"/>
  </clipPath>
 </defs>
</svg>
